Coordinates
version=1
nRows=8
nColumns=40
inDegrees=yes

Units are S.I. units (second, meters, Newtons, ...)
Angles are in degrees.

endheader
time	pelvis_tilt	pelvis_list	pelvis_rotation	pelvis_tx	pelvis_ty	pelvis_tz	hip_flexion_r	hip_adduction_r	hip_rotation_r	knee_angle_r	knee_angle_r_beta	ankle_angle_r	subtalar_angle_r	mtp_angle_r	hip_flexion_l	hip_adduction_l	hip_rotation_l	knee_angle_l	knee_angle_l_beta	ankle_angle_l	subtalar_angle_l	mtp_angle_l	lumbar_extension	lumbar_bending	lumbar_rotation	arm_flex_r	arm_add_r	arm_rot_r	elbow_flex_r	pro_sup_r	wrist_flex_r	wrist_dev_r	arm_flex_l	arm_add_l	arm_rot_l	elbow_flex_l	pro_sup_l	wrist_flex_l	wrist_dev_l
      6.92342857	     -3.58769908	     -5.82523528	      3.93398535	      0.72465840	      0.91929292	      0.50725325	     -0.40665218	      4.82244875	    -16.67730255	     12.47973548	     12.47973548	     17.44693708	      2.41778775	     -3.83376563	     29.01306014	     -8.43989132	     -1.32071761	     18.54364043	     18.54364043	      0.88978351	     -6.91060080	      2.41286240	     -8.45099312	      7.05113541	      2.28200147	     33.18040551	    -15.49426689	     -7.95995600	     85.34866905	     44.35364191	      0.00000000	      0.00000000	     -5.69051313	     -9.17798491	    -12.58563079	     30.35317872	     47.06320898	      0.00000000	      0.00000000
      6.93685714	     -3.64384059	     -5.81588106	      3.70811661	      0.72597697	      0.91855038	      0.50552028	     -0.85577857	      4.67393083	    -16.41508956	     12.60654346	     12.60654346	     17.75173288	      2.47752320	     -3.89495174	     28.71070237	     -8.39844008	     -1.29569626	     19.11642058	     19.11642058	      0.57066172	     -7.15728163	      2.40566506	     -8.25019415	      6.95340127	      2.36447702	     32.77261352	    -15.35595825	     -7.85467806	     85.22248577	     44.35438480	      0.00000000	      0.00000000	     -5.88744648	     -9.20452840	    -12.61146369	     30.29474766	     47.06222765	      0.00000000	      0.00000000
      6.95028571	     -3.72751084	     -5.79151412	      3.43656567	      0.72717948	      0.91776081	      0.50355227	     -1.05748619	      4.41618245	    -16.14888436	     13.14906659	     13.14906659	     18.11571558	      2.35068506	     -3.64026252	     28.78137859	     -8.25884844	     -0.84983040	     20.27985295	     20.27985295	      0.45869849	     -8.45184749	      1.93804852	     -8.05634362	      6.74960686	      2.45081713	     32.05843533	    -15.37030615	     -7.45600323	     84.69158646	     44.36881929	      0.00000000	      0.00000000	     -6.03834599	     -9.24258807	    -12.68599696	     30.32826700	     47.05936216	      0.00000000	      0.00000000
      6.96371429	     -3.76153515	     -5.63783945	      3.23386726	      0.72834782	      0.91761476	      0.50136515	     -1.36318757	      4.03198800	    -15.88135211	     13.57166283	     13.57166283	     18.34292622	      2.23095279	     -3.46631101	     28.55256262	     -7.99523185	     -0.65043050	     20.95580040	     20.95580040	      0.52895556	     -9.14227743	      1.64804863	     -7.96567967	      6.44851705	      2.45356970	     31.28001117	    -15.32012978	     -7.11769767	     84.18424143	     44.37962245	      0.00000000	      0.00000000	     -6.09034283	     -9.30786689	    -12.71465649	     30.31197709	     47.05517857	      0.00000000	      0.00000000
      6.97714286	     -3.74469451	     -5.51276451	      3.07656138	      0.72947651	      0.91791303	      0.49895261	     -1.73195500	      3.67225049	    -15.69905626	     13.94061771	     13.94061771	     18.36520246	      2.12770116	     -3.39962900	     28.24099232	     -7.76081555	     -0.54961633	     21.52996613	     21.52996613	      0.90585818	     -9.60983138	      1.38625478	     -7.95575648	      6.22032189	      2.36281598	     30.30443508	    -15.18177028	     -6.88211028	     83.73430074	     44.38559123	      0.00000000	      0.00000000	     -6.12916200	     -9.22759542	    -12.70211720	     30.27835172	     47.04946891	      0.00000000	      0.00000000
      6.99057143	     -3.93740948	     -5.34497550	      2.90807396	      0.73013737	      0.91804701	      0.49631662	     -1.43728029	      3.13200605	    -15.43198356	     15.10994576	     15.10994576	     18.57065809	      1.60774452	     -3.14330358	     28.24802795	     -7.39148347	     -0.23108574	     22.20725450	     22.20725450	      1.22030822	    -10.63665982	      1.18046458	     -7.73083166	      5.94453722	      2.53063508	     29.39045342	    -15.64943132	     -6.25802860	     82.43074604	     44.41853396	      0.00000000	      0.00000000	     -5.83025260	     -9.24474822	    -12.62856128	     30.22271574	     47.03027690	      0.00000000	      0.00000000
      7.00400000	     -3.86400538	     -5.23150947	      2.84846394	      0.73111577	      0.91900794	      0.49355864	     -1.74474143	      2.74596586	    -15.32860591	     15.65647023	     15.65647023	     18.41685841	      1.42012725	     -3.06421232	     27.82153337	     -7.12416847	     -0.12273386	     22.63113551	     22.63113551	      1.83869441	    -11.00003329	      0.91699658	     -7.82370947	      5.77167024	      2.32592366	     28.21750733	    -15.49301722	     -5.96240025	     81.83345978	     44.42674251	      0.00000000	      0.00000000	     -5.72959079	     -9.20299913	    -12.59052405	     30.19885788	     47.02291984	      0.00000000	      0.00000000
      7.01742857	     -4.05019158	     -4.99041701	      2.68515644	      0.73162172	      0.91965294	      0.49069985	     -1.20278934	      2.04914944	    -15.04988701	     17.25816936	     17.25816936	     18.44698174	      0.73859037	     -3.04602156	     27.63996838	     -6.70961412	     -0.09350588	     22.99463002	     22.99463002	      2.44454966	    -11.57210950	      0.89818800	     -7.64327593	      5.42872483	      2.54062002	     27.11383880	    -16.02770982	     -5.26736492	     80.17590038	     44.46704398	      0.00000000	      0.00000000	     -5.26335848	     -9.19829577	    -12.41814247	     30.11570206	     46.99254901	      0.00000000	      0.00000000
